<?xml version="1.0" encoding="iso-8859-1"?>
<!-- Generator: Adobe Illustrator 19.0.0, SVG Export Plug-In . SVG Version: 6.00 Build 0)  -->
<svg version="1.1" id="Capa_1" xmlns="http://www.w3.org/2000/svg" xmlns:xlink="http://www.w3.org/1999/xlink" x="0px" y="0px"
	 viewBox="0 0 512 512" style="enable-background:new 0 0 512 512;" xml:space="preserve">
<g>
	<g>
		<path d="M451.998,210.998c-5.197,0-10.24,0.67-15.052,1.918l10.448-116.052c0.005-0.052,0.009-0.104,0.013-0.155
			c3.448-41.972-26.5-79.62-68.179-85.711C344.894,5.98,295.472,0,255,0c-40.264,0-88.783,5.92-122.396,10.887
			C91.02,17.03,61.14,54.668,64.582,96.573c0.004,0.053,0.009,0.104,0.014,0.156l10.46,116.187
			c-4.813-1.248-9.856-1.918-15.054-1.918c-33.084,0-59.999,26.916-59.999,59.999c0,83.85,52.917,138.698,77.046,159.347
			l-16.256,56.082c-3.075,10.609,3.033,21.702,13.642,24.777c1.86,0.539,3.733,0.796,5.577,0.796c8.674,0,16.664-5.688,19.2-14.437
			l15.817-54.567h281.944l15.817,54.567c2.537,8.75,10.525,14.437,19.2,14.437c1.843,0,3.718-0.257,5.577-0.796
			c10.609-3.075,16.716-14.168,13.642-24.777l-20-68.999c-2.586-8.921-10.845-14.635-19.712-14.406
			c-0.167-0.004-0.329-0.025-0.497-0.025h-304.24c-6.583-5.323-19.251-16.525-31.728-32.891
			c-23.244-30.49-35.03-63.835-35.03-99.109c0-11.028,8.972-20,20-20s20,8.972,20,20c0,0.79,0.047,1.579,0.14,2.364l1.369,11.5
			c0.386,12.641,6.141,24.435,15.923,32.528c10.14,8.392,23.373,11.791,36.309,9.329c47.813-9.105,88.946-13.721,122.258-13.721
			s74.445,4.616,122.257,13.721c12.935,2.467,26.168-0.936,36.31-9.328c9.782-8.094,15.537-19.888,15.923-32.528l1.369-11.5
			c0.093-0.785,0.14-1.574,0.14-2.364c0-11.028,8.972-20,20-20c11.028,0,20,8.972,20,20c0,24.501-5.811,48.37-17.272,70.945
			c-5,9.85-1.069,21.887,8.78,26.887c9.852,5.003,21.887,1.069,26.887-8.779c14.336-28.239,21.605-58.2,21.605-89.053
			C511.998,237.914,485.082,210.998,451.998,210.998z M407.548,93.366l-16.956,188.341c-0.005,0.059-0.002,0.117-0.007,0.176
			c-0.044,0.538-0.074,1.077-0.074,1.617c0,1.552-0.786,2.528-1.445,3.073c-0.665,0.552-1.784,1.15-3.325,0.851
			c-50.273-9.573-93.924-14.427-129.741-14.427s-79.467,4.854-129.741,14.428c-1.543,0.292-2.66-0.301-3.325-0.852
			c-0.659-0.545-1.445-1.521-1.445-3.073c0-0.54-0.03-1.079-0.074-1.617c-0.005-0.059-0.001-0.117-0.007-0.176L104.441,93.231
			c-1.683-20.926,13.244-39.708,34.01-42.775C170.738,45.687,217.166,40,255,40c38.069,0,85.422,5.752,118.444,10.578
			C394.266,53.62,409.233,72.408,407.548,93.366z"/>
	</g>
</g>
<g>
</g>
<g>
</g>
<g>
</g>
<g>
</g>
<g>
</g>
<g>
</g>
<g>
</g>
<g>
</g>
<g>
</g>
<g>
</g>
<g>
</g>
<g>
</g>
<g>
</g>
<g>
</g>
<g>
</g>
</svg>
